<?xml version="1.0" encoding="UTF-8"?>
<!DOCTYPE svg PUBLIC "-//W3C//DTD SVG 1.1//EN" "http://www.w3.org/Graphics/SVG/1.1/DTD/svg11.dtd">
<svg xmlns="http://www.w3.org/2000/svg" xmlns:xlink="http://www.w3.org/1999/xlink" version="1.1" width="739px" height="873px" viewBox="-0.5 -0.5 739 873" style="background-color: rgb(255, 255, 255);"><defs><clipPath id="mx-clip-4-58-212-26-0"><rect x="4" y="58" width="212" height="26"/></clipPath><clipPath id="mx-clip-4-84-212-26-0"><rect x="4" y="84" width="212" height="26"/></clipPath><clipPath id="mx-clip-4-110-212-26-0"><rect x="4" y="110" width="212" height="26"/></clipPath><clipPath id="mx-clip-4-136-212-26-0"><rect x="4" y="136" width="212" height="26"/></clipPath><clipPath id="mx-clip-4-162-212-26-0"><rect x="4" y="162" width="212" height="26"/></clipPath><clipPath id="mx-clip-4-188-212-26-0"><rect x="4" y="188" width="212" height="26"/></clipPath><clipPath id="mx-clip-4-214-212-26-0"><rect x="4" y="214" width="212" height="26"/></clipPath><clipPath id="mx-clip-4-266-212-26-0"><rect x="4" y="266" width="212" height="26"/></clipPath><clipPath id="mx-clip-4-292-212-26-0"><rect x="4" y="292" width="212" height="26"/></clipPath><clipPath id="mx-clip-264-58-172-26-0"><rect x="264" y="58" width="172" height="26"/></clipPath><clipPath id="mx-clip-264-84-172-26-0"><rect x="264" y="84" width="172" height="26"/></clipPath><clipPath id="mx-clip-264-110-172-26-0"><rect x="264" y="110" width="172" height="26"/></clipPath><clipPath id="mx-clip-264-136-172-26-0"><rect x="264" y="136" width="172" height="26"/></clipPath><clipPath id="mx-clip-264-162-172-26-0"><rect x="264" y="162" width="172" height="26"/></clipPath><clipPath id="mx-clip-264-188-172-26-0"><rect x="264" y="188" width="172" height="26"/></clipPath><clipPath id="mx-clip-264-214-172-38-0"><rect x="264" y="214" width="172" height="38"/></clipPath><clipPath id="mx-clip-264-252-172-26-0"><rect x="264" y="252" width="172" height="26"/></clipPath><clipPath id="mx-clip-264-278-172-26-0"><rect x="264" y="278" width="172" height="26"/></clipPath><clipPath id="mx-clip-484-58-202-26-0"><rect x="484" y="58" width="202" height="26"/></clipPath><clipPath id="mx-clip-484-84-202-26-0"><rect x="484" y="84" width="202" height="26"/></clipPath><clipPath id="mx-clip-484-110-202-26-0"><rect x="484" y="110" width="202" height="26"/></clipPath><clipPath id="mx-clip-484-136-202-26-0"><rect x="484" y="136" width="202" height="26"/></clipPath><clipPath id="mx-clip-484-162-202-26-0"><rect x="484" y="162" width="202" height="26"/></clipPath><clipPath id="mx-clip-484-188-202-26-0"><rect x="484" y="188" width="202" height="26"/></clipPath><clipPath id="mx-clip-484-268-202-26-0"><rect x="484" y="268" width="202" height="26"/></clipPath><clipPath id="mx-clip-484-294-202-26-0"><rect x="484" y="294" width="202" height="26"/></clipPath><clipPath id="mx-clip-484-320-202-26-0"><rect x="484" y="320" width="202" height="26"/></clipPath><clipPath id="mx-clip-484-346-202-26-0"><rect x="484" y="346" width="202" height="26"/></clipPath><clipPath id="mx-clip-264-398-172-26-0"><rect x="264" y="398" width="172" height="26"/></clipPath><clipPath id="mx-clip-264-424-172-26-0"><rect x="264" y="424" width="172" height="26"/></clipPath><clipPath id="mx-clip-264-450-172-26-0"><rect x="264" y="450" width="172" height="26"/></clipPath><clipPath id="mx-clip-264-476-172-26-0"><rect x="264" y="476" width="172" height="26"/></clipPath><clipPath id="mx-clip-264-502-172-26-0"><rect x="264" y="502" width="172" height="26"/></clipPath><clipPath id="mx-clip-264-528-172-26-0"><rect x="264" y="528" width="172" height="26"/></clipPath><clipPath id="mx-clip-264-554-172-26-0"><rect x="264" y="554" width="172" height="26"/></clipPath><clipPath id="mx-clip-264-606-172-26-0"><rect x="264" y="606" width="172" height="26"/></clipPath><clipPath id="mx-clip-264-632-172-26-0"><rect x="264" y="632" width="172" height="26"/></clipPath><clipPath id="mx-clip-264-658-172-26-0"><rect x="264" y="658" width="172" height="26"/></clipPath><clipPath id="mx-clip-264-684-172-26-0"><rect x="264" y="684" width="172" height="26"/></clipPath><clipPath id="mx-clip-264-710-172-26-0"><rect x="264" y="710" width="172" height="26"/></clipPath><clipPath id="mx-clip-264-762-172-26-0"><rect x="264" y="762" width="172" height="26"/></clipPath><clipPath id="mx-clip-264-788-172-26-0"><rect x="264" y="788" width="172" height="26"/></clipPath><clipPath id="mx-clip-264-814-172-26-0"><rect x="264" y="814" width="172" height="26"/></clipPath><clipPath id="mx-clip-504-718-202-26-0"><rect x="504" y="718" width="202" height="26"/></clipPath><clipPath id="mx-clip-504-744-202-26-0"><rect x="504" y="744" width="202" height="26"/></clipPath><clipPath id="mx-clip-504-770-202-26-0"><rect x="504" y="770" width="202" height="26"/></clipPath><clipPath id="mx-clip-504-822-202-26-0"><rect x="504" y="822" width="202" height="26"/></clipPath><clipPath id="mx-clip-504-848-202-26-0"><rect x="504" y="848" width="202" height="26"/></clipPath></defs><g><path d="M 0 53 L 0 27 L 220 27 L 220 53" fill="rgb(255, 255, 255)" stroke="rgb(0, 0, 0)" stroke-miterlimit="10" pointer-events="all"/><path d="M 0 53 L 0 313 L 220 313 L 220 53" fill="none" stroke="rgb(0, 0, 0)" stroke-miterlimit="10" pointer-events="none"/><path d="M 0 53 L 220 53" fill="none" stroke="rgb(0, 0, 0)" stroke-miterlimit="10" pointer-events="none"/><g fill="rgb(0, 0, 0)" font-family="Helvetica" font-weight="bold" pointer-events="none" text-anchor="middle" font-size="12px"><text x="109.5" y="44.5">Entity</text></g><g fill="rgb(0, 0, 0)" font-family="Helvetica" pointer-events="none" clip-path="url(#mx-clip-4-58-212-26-0)" font-size="12px"><text x="5.5" y="70.5">enid: ObjectID</text></g><g fill="rgb(0, 0, 0)" font-family="Helvetica" pointer-events="none" clip-path="url(#mx-clip-4-84-212-26-0)" font-size="12px"><text x="5.5" y="96.5">name: string</text></g><g fill="rgb(0, 0, 0)" font-family="Helvetica" pointer-events="none" clip-path="url(#mx-clip-4-110-212-26-0)" font-size="12px"><text x="5.5" y="122.5">description: string</text></g><g fill="rgb(0, 0, 0)" font-family="Helvetica" pointer-events="none" clip-path="url(#mx-clip-4-136-212-26-0)" font-size="12px"><text x="5.5" y="148.5">type: org | research</text></g><g fill="rgb(0, 0, 0)" font-family="Helvetica" pointer-events="none" clip-path="url(#mx-clip-4-162-212-26-0)" font-size="12px"><text x="5.5" y="174.5">external_id: number</text></g><g fill="rgb(0, 0, 0)" font-family="Helvetica" pointer-events="none" clip-path="url(#mx-clip-4-188-212-26-0)" font-size="12px"><text x="5.5" y="200.5">representatives: number</text></g><g fill="rgb(0, 0, 0)" font-family="Helvetica" pointer-events="none" clip-path="url(#mx-clip-4-214-212-26-0)" font-size="12px"><text x="5.5" y="226.5">location: string</text></g><path d="M 0 261 L 0 235 L 220 235 L 220 261" fill="rgb(255, 255, 255)" stroke="rgb(0, 0, 0)" stroke-miterlimit="10" pointer-events="none"/><path d="M 0 261 L 0 313 L 220 313 L 220 261" fill="none" stroke="rgb(0, 0, 0)" stroke-miterlimit="10" pointer-events="none"/><path d="M 0 261 L 220 261" fill="none" stroke="rgb(0, 0, 0)" stroke-miterlimit="10" pointer-events="none"/><g fill="rgb(0, 0, 0)" font-family="Helvetica" font-weight="bold" pointer-events="none" text-anchor="middle" font-size="12px"><text x="109.5" y="252.5">contact[]</text></g><g fill="rgb(0, 0, 0)" font-family="Helvetica" pointer-events="none" clip-path="url(#mx-clip-4-266-212-26-0)" font-size="12px"><text x="5.5" y="278.5">type: website | email | phonenumber</text></g><g fill="rgb(0, 0, 0)" font-family="Helvetica" pointer-events="none" clip-path="url(#mx-clip-4-292-212-26-0)" font-size="12px"><text x="5.5" y="304.5">content: string</text></g><path d="M 260 53 L 260 27 L 440 27 L 440 53" fill="rgb(255, 255, 255)" stroke="rgb(0, 0, 0)" stroke-miterlimit="10" pointer-events="none"/><path d="M 260 53 L 260 299 L 440 299 L 440 53" fill="none" stroke="rgb(0, 0, 0)" stroke-miterlimit="10" pointer-events="none"/><path d="M 260 53 L 440 53" fill="none" stroke="rgb(0, 0, 0)" stroke-miterlimit="10" pointer-events="none"/><g fill="rgb(0, 0, 0)" font-family="Helvetica" font-weight="bold" pointer-events="none" text-anchor="middle" font-size="12px"><text x="349.5" y="44.5">Event</text></g><g fill="rgb(0, 0, 0)" font-family="Helvetica" pointer-events="none" clip-path="url(#mx-clip-264-58-172-26-0)" font-size="12px"><text x="265.5" y="70.5">evid: ObjectID</text></g><g fill="rgb(0, 0, 0)" font-family="Helvetica" pointer-events="none" clip-path="url(#mx-clip-264-84-172-26-0)" font-size="12px"><text x="265.5" y="96.5">enabled: boolean</text></g><g fill="rgb(0, 0, 0)" font-family="Helvetica" pointer-events="none" clip-path="url(#mx-clip-264-110-172-26-0)" font-size="12px"><text x="265.5" y="122.5">name: string</text></g><g fill="rgb(0, 0, 0)" font-family="Helvetica" pointer-events="none" clip-path="url(#mx-clip-264-136-172-26-0)" font-size="12px"><text x="265.5" y="148.5">description: string</text></g><g fill="rgb(0, 0, 0)" font-family="Helvetica" pointer-events="none" clip-path="url(#mx-clip-264-162-172-26-0)" font-size="12px"><text x="265.5" y="174.5">start: date</text></g><g fill="rgb(0, 0, 0)" font-family="Helvetica" pointer-events="none" clip-path="url(#mx-clip-264-188-172-26-0)" font-size="12px"><text x="265.5" y="200.5">location: string</text></g><g fill="rgb(0, 0, 0)" font-family="Helvetica" pointer-events="none" clip-path="url(#mx-clip-264-214-172-38-0)" font-size="12px"><text x="265.5" y="226.5">studentSubmitDeadline: date</text><text x="265.5" y="240.5">(unused)</text></g><g fill="rgb(0, 0, 0)" font-family="Helvetica" pointer-events="none" clip-path="url(#mx-clip-264-252-172-26-0)" font-size="12px"><text x="265.5" y="264.5">entities: [ObjectID]</text></g><g fill="rgb(0, 0, 0)" font-family="Helvetica" pointer-events="none" clip-path="url(#mx-clip-264-278-172-26-0)" font-size="12px"><text x="265.5" y="290.5">external_id: number</text></g><path d="M 220 66 L 240 66 L 240 260 L 253.63 260" fill="none" stroke="rgb(0, 0, 0)" stroke-miterlimit="10" pointer-events="none"/><path d="M 258.88 260 L 251.88 263.5 L 253.63 260 L 251.88 256.5 Z" fill="rgb(0, 0, 0)" stroke="rgb(0, 0, 0)" stroke-miterlimit="10" pointer-events="none"/><path d="M 480 53 L 480 27 L 690 27 L 690 53" fill="rgb(255, 255, 255)" stroke="rgb(0, 0, 0)" stroke-miterlimit="10" pointer-events="none"/><path d="M 480 53 L 480 209 L 690 209 L 690 53" fill="none" stroke="rgb(0, 0, 0)" stroke-miterlimit="10" pointer-events="none"/><path d="M 480 53 L 690 53" fill="none" stroke="rgb(0, 0, 0)" stroke-miterlimit="10" pointer-events="none"/><g fill="rgb(0, 0, 0)" font-family="Helvetica" font-weight="bold" pointer-events="none" text-anchor="middle" font-size="12px"><text x="584.5" y="44.5">Project</text></g><g fill="rgb(0, 0, 0)" font-family="Helvetica" pointer-events="none" clip-path="url(#mx-clip-484-58-202-26-0)" font-size="12px"><text x="485.5" y="70.5">pid: ObjectID</text></g><g fill="rgb(0, 0, 0)" font-family="Helvetica" pointer-events="none" clip-path="url(#mx-clip-484-84-202-26-0)" font-size="12px"><text x="485.5" y="96.5">enid: ObjectID</text></g><g fill="rgb(0, 0, 0)" font-family="Helvetica" pointer-events="none" clip-path="url(#mx-clip-484-110-202-26-0)" font-size="12px"><text x="485.5" y="122.5">evids: [ObjectID]</text></g><g fill="rgb(0, 0, 0)" font-family="Helvetica" pointer-events="none" clip-path="url(#mx-clip-484-136-202-26-0)" font-size="12px"><text x="485.5" y="148.5">name: string</text></g><g fill="rgb(0, 0, 0)" font-family="Helvetica" pointer-events="none" clip-path="url(#mx-clip-484-162-202-26-0)" font-size="12px"><text x="485.5" y="174.5">description: string</text></g><g fill="rgb(0, 0, 0)" font-family="Helvetica" pointer-events="none" clip-path="url(#mx-clip-484-188-202-26-0)" font-size="12px"><text x="485.5" y="200.5">Datanose link</text></g><path d="M 440 66 L 450 66 L 450 118 L 473.63 118" fill="none" stroke="rgb(0, 0, 0)" stroke-miterlimit="10" pointer-events="none"/><path d="M 478.88 118 L 471.88 121.5 L 473.63 118 L 471.88 114.5 Z" fill="rgb(0, 0, 0)" stroke="rgb(0, 0, 0)" stroke-miterlimit="10" pointer-events="none"/><path d="M 220 66 L 240 66 L 240 7 L 460 7 L 460 92 L 473.63 92" fill="none" stroke="rgb(0, 0, 0)" stroke-miterlimit="10" pointer-events="none"/><path d="M 478.88 92 L 471.88 95.5 L 473.63 92 L 471.88 88.5 Z" fill="rgb(0, 0, 0)" stroke="rgb(0, 0, 0)" stroke-miterlimit="10" pointer-events="none"/><path d="M 480 263 L 480 237 L 690 237 L 690 263" fill="rgb(255, 255, 255)" stroke="rgb(0, 0, 0)" stroke-miterlimit="10" pointer-events="none"/><path d="M 480 263 L 480 367 L 690 367 L 690 263" fill="none" stroke="rgb(0, 0, 0)" stroke-miterlimit="10" pointer-events="none"/><path d="M 480 263 L 690 263" fill="none" stroke="rgb(0, 0, 0)" stroke-miterlimit="10" pointer-events="none"/><g fill="rgb(0, 0, 0)" font-family="Helvetica" font-weight="bold" pointer-events="none" text-anchor="middle" font-size="12px"><text x="584.5" y="254.5">Schedule</text></g><g fill="rgb(0, 0, 0)" font-family="Helvetica" pointer-events="none" clip-path="url(#mx-clip-484-268-202-26-0)" font-size="12px"><text x="485.5" y="280.5">sid: ObjectID</text></g><g fill="rgb(0, 0, 0)" font-family="Helvetica" pointer-events="none" clip-path="url(#mx-clip-484-294-202-26-0)" font-size="12px"><text x="485.5" y="306.5">evid: ObjectID</text></g><g fill="rgb(0, 0, 0)" font-family="Helvetica" pointer-events="none" clip-path="url(#mx-clip-484-320-202-26-0)" font-size="12px"><text x="485.5" y="332.5">enid: ObjectID</text></g><g fill="rgb(0, 0, 0)" font-family="Helvetica" pointer-events="none" clip-path="url(#mx-clip-484-346-202-26-0)" font-size="12px"><text x="485.5" y="358.5">slot: string</text></g><path d="M 440 66 L 450 66 L 450 302 L 473.63 302" fill="none" stroke="rgb(0, 0, 0)" stroke-miterlimit="10" pointer-events="none"/><path d="M 478.88 302 L 471.88 305.5 L 473.63 302 L 471.88 298.5 Z" fill="rgb(0, 0, 0)" stroke="rgb(0, 0, 0)" stroke-miterlimit="10" pointer-events="none"/><path d="M 220 66 L 240 66 L 240 328 L 473.63 328" fill="none" stroke="rgb(0, 0, 0)" stroke-miterlimit="10" pointer-events="none"/><path d="M 478.88 328 L 471.88 331.5 L 473.63 328 L 471.88 324.5 Z" fill="rgb(0, 0, 0)" stroke="rgb(0, 0, 0)" stroke-miterlimit="10" pointer-events="none"/><path d="M 260 393 L 260 367 L 440 367 L 440 393" fill="rgb(255, 255, 255)" stroke="rgb(0, 0, 0)" stroke-miterlimit="10" pointer-events="none"/><path d="M 260 393 L 260 835 L 440 835 L 440 393" fill="none" stroke="rgb(0, 0, 0)" stroke-miterlimit="10" pointer-events="none"/><path d="M 260 393 L 440 393" fill="none" stroke="rgb(0, 0, 0)" stroke-miterlimit="10" pointer-events="none"/><g fill="rgb(0, 0, 0)" font-family="Helvetica" font-weight="bold" pointer-events="none" text-anchor="middle" font-size="12px"><text x="349.5" y="384.5">User</text></g><g fill="rgb(0, 0, 0)" font-family="Helvetica" pointer-events="none" clip-path="url(#mx-clip-264-398-172-26-0)" font-size="12px"><text x="265.5" y="410.5">uid: ObjectID</text></g><g fill="rgb(0, 0, 0)" font-family="Helvetica" pointer-events="none" clip-path="url(#mx-clip-264-424-172-26-0)" font-size="12px"><text x="265.5" y="436.5">firstname: string</text></g><g fill="rgb(0, 0, 0)" font-family="Helvetica" pointer-events="none" clip-path="url(#mx-clip-264-450-172-26-0)" font-size="12px"><text x="265.5" y="462.5">lastname: string</text></g><g fill="rgb(0, 0, 0)" font-family="Helvetica" pointer-events="none" clip-path="url(#mx-clip-264-476-172-26-0)" font-size="12px"><text x="265.5" y="488.5">email: string</text></g><g fill="rgb(0, 0, 0)" font-family="Helvetica" pointer-events="none" clip-path="url(#mx-clip-264-502-172-26-0)" font-size="12px"><text x="265.5" y="514.5">phone: string</text></g><g fill="rgb(0, 0, 0)" font-family="Helvetica" pointer-events="none" clip-path="url(#mx-clip-264-528-172-26-0)" font-size="12px"><text x="265.5" y="540.5">admin: boolean</text></g><g fill="rgb(0, 0, 0)" font-family="Helvetica" pointer-events="none" clip-path="url(#mx-clip-264-554-172-26-0)" font-size="12px"><text x="265.5" y="566.5">password: string</text></g><path d="M 260 601 L 260 575 L 440 575 L 440 601" fill="rgb(255, 255, 255)" stroke="rgb(0, 0, 0)" stroke-miterlimit="10" pointer-events="none"/><path d="M 260 601 L 260 731 L 440 731 L 440 601" fill="none" stroke="rgb(0, 0, 0)" stroke-miterlimit="10" pointer-events="none"/><path d="M 260 601 L 440 601" fill="none" stroke="rgb(0, 0, 0)" stroke-miterlimit="10" pointer-events="none"/><g fill="rgb(0, 0, 0)" font-family="Helvetica" font-weight="bold" pointer-events="none" text-anchor="middle" font-size="12px"><text x="349.5" y="592.5">Student union</text></g><g fill="rgb(0, 0, 0)" font-family="Helvetica" pointer-events="none" clip-path="url(#mx-clip-264-606-172-26-0)" font-size="12px"><text x="265.5" y="618.5">studentnumber: string</text></g><g fill="rgb(0, 0, 0)" font-family="Helvetica" pointer-events="none" clip-path="url(#mx-clip-264-632-172-26-0)" font-size="12px"><text x="265.5" y="644.5">websites: [string]</text></g><g fill="rgb(0, 0, 0)" font-family="Helvetica" pointer-events="none" clip-path="url(#mx-clip-264-658-172-26-0)" font-size="12px"><text x="265.5" y="670.5">studies: [string]</text></g><g fill="rgb(0, 0, 0)" font-family="Helvetica" pointer-events="none" clip-path="url(#mx-clip-264-684-172-26-0)" font-size="12px"><text x="265.5" y="696.5">share: [ObjectId]</text></g><g fill="rgb(0, 0, 0)" font-family="Helvetica" pointer-events="none" clip-path="url(#mx-clip-264-710-172-26-0)" font-size="12px"><text x="265.5" y="722.5">manuallyShared: [ObjectId]</text></g><path d="M 260 757 L 260 731 L 440 731 L 440 757" fill="rgb(255, 255, 255)" stroke="rgb(0, 0, 0)" stroke-miterlimit="10" pointer-events="none"/><path d="M 260 757 L 260 835 L 440 835 L 440 757" fill="none" stroke="rgb(0, 0, 0)" stroke-miterlimit="10" pointer-events="none"/><path d="M 260 757 L 440 757" fill="none" stroke="rgb(0, 0, 0)" stroke-miterlimit="10" pointer-events="none"/><g fill="rgb(0, 0, 0)" font-family="Helvetica" font-weight="bold" pointer-events="none" text-anchor="middle" font-size="12px"><text x="349.5" y="748.5">Representative union</text></g><g fill="rgb(0, 0, 0)" font-family="Helvetica" pointer-events="none" clip-path="url(#mx-clip-264-762-172-26-0)" font-size="12px"><text x="265.5" y="774.5">enid: ObjectId</text></g><g fill="rgb(0, 0, 0)" font-family="Helvetica" pointer-events="none" clip-path="url(#mx-clip-264-788-172-26-0)" font-size="12px"><text x="265.5" y="800.5">repAdmin: boolean</text></g><g fill="rgb(0, 0, 0)" font-family="Helvetica" pointer-events="none" clip-path="url(#mx-clip-264-814-172-26-0)" font-size="12px"><text x="265.5" y="826.5">external_id: string</text></g><path d="M 220 66 L 240 66 L 240 770 L 253.63 770" fill="none" stroke="rgb(0, 0, 0)" stroke-miterlimit="10" pointer-events="none"/><path d="M 258.88 770 L 251.88 773.5 L 253.63 770 L 251.88 766.5 Z" fill="rgb(0, 0, 0)" stroke="rgb(0, 0, 0)" stroke-miterlimit="10" pointer-events="none"/><path d="M 500 713 L 500 687 L 710 687 L 710 713" fill="rgb(255, 255, 255)" stroke="rgb(0, 0, 0)" stroke-miterlimit="10" pointer-events="none"/><path d="M 500 713 L 500 869 L 710 869 L 710 713" fill="none" stroke="rgb(0, 0, 0)" stroke-miterlimit="10" pointer-events="none"/><path d="M 500 713 L 710 713" fill="none" stroke="rgb(0, 0, 0)" stroke-miterlimit="10" pointer-events="none"/><g fill="rgb(0, 0, 0)" font-family="Helvetica" font-weight="bold" pointer-events="none" text-anchor="middle" font-size="12px"><text x="604.5" y="704.5">Vote</text></g><g fill="rgb(0, 0, 0)" font-family="Helvetica" pointer-events="none" clip-path="url(#mx-clip-504-718-202-26-0)" font-size="12px"><text x="505.5" y="730.5">vid: ObjectID</text></g><g fill="rgb(0, 0, 0)" font-family="Helvetica" pointer-events="none" clip-path="url(#mx-clip-504-744-202-26-0)" font-size="12px"><text x="505.5" y="756.5">uid: ObjectID</text></g><g fill="rgb(0, 0, 0)" font-family="Helvetica" pointer-events="none" clip-path="url(#mx-clip-504-770-202-26-0)" font-size="12px"><text x="505.5" y="782.5">evid: ObjectID</text></g><path d="M 500 817 L 500 791 L 710 791 L 710 817" fill="rgb(255, 255, 255)" stroke="rgb(0, 0, 0)" stroke-miterlimit="10" pointer-events="none"/><path d="M 500 817 L 500 869 L 710 869 L 710 817" fill="none" stroke="rgb(0, 0, 0)" stroke-miterlimit="10" pointer-events="none"/><path d="M 500 817 L 710 817" fill="none" stroke="rgb(0, 0, 0)" stroke-miterlimit="10" pointer-events="none"/><g fill="rgb(0, 0, 0)" font-family="Helvetica" font-weight="bold" pointer-events="none" text-anchor="middle" font-size="12px"><text x="604.5" y="808.5">votes[]</text></g><g fill="rgb(0, 0, 0)" font-family="Helvetica" pointer-events="none" clip-path="url(#mx-clip-504-822-202-26-0)" font-size="12px"><text x="505.5" y="834.5">enid: ObjectID</text></g><g fill="rgb(0, 0, 0)" font-family="Helvetica" pointer-events="none" clip-path="url(#mx-clip-504-848-202-26-0)" font-size="12px"><text x="505.5" y="860.5">pid: ObjectID</text></g><path d="M 690 66 L 730 66 L 730 856 L 716.37 856" fill="none" stroke="rgb(0, 0, 0)" stroke-miterlimit="10" pointer-events="none"/><path d="M 711.12 856 L 718.12 852.5 L 716.37 856 L 718.12 859.5 Z" fill="rgb(0, 0, 0)" stroke="rgb(0, 0, 0)" stroke-miterlimit="10" pointer-events="none"/><path d="M 220 66 L 240 66 L 240 692 L 253.63 692" fill="none" stroke="rgb(0, 0, 0)" stroke-miterlimit="10" pointer-events="none"/><path d="M 258.88 692 L 251.88 695.5 L 253.63 692 L 251.88 688.5 Z" fill="rgb(0, 0, 0)" stroke="rgb(0, 0, 0)" stroke-miterlimit="10" pointer-events="none"/><path d="M 220 66 L 240 66 L 240 847 L 470 847 L 470 830 L 493.63 830" fill="none" stroke="rgb(0, 0, 0)" stroke-miterlimit="10" pointer-events="none"/><path d="M 498.88 830 L 491.88 833.5 L 493.63 830 L 491.88 826.5 Z" fill="rgb(0, 0, 0)" stroke="rgb(0, 0, 0)" stroke-miterlimit="10" pointer-events="none"/><path d="M 440 406 L 470 406 L 470 752 L 493.63 752" fill="none" stroke="rgb(0, 0, 0)" stroke-miterlimit="10" pointer-events="none"/><path d="M 498.88 752 L 491.88 755.5 L 493.63 752 L 491.88 748.5 Z" fill="rgb(0, 0, 0)" stroke="rgb(0, 0, 0)" stroke-miterlimit="10" pointer-events="none"/><path d="M 440 66 L 450 66 L 450 325 C 453.9 325 453.9 331 450 331 L 450 331 L 450 403 C 453.9 403 453.9 409 450 409 L 450 409 L 450 778 L 493.63 778" fill="none" stroke="rgb(0, 0, 0)" stroke-miterlimit="10" pointer-events="none"/><path d="M 498.88 778 L 491.88 781.5 L 493.63 778 L 491.88 774.5 Z" fill="rgb(0, 0, 0)" stroke="rgb(0, 0, 0)" stroke-miterlimit="10" pointer-events="none"/></g></svg>