<?xml version="1.0" encoding="UTF-8"?>
<!DOCTYPE svg PUBLIC "-//W3C//DTD SVG 1.1//EN" "http://www.w3.org/Graphics/SVG/1.1/DTD/svg11.dtd">
<svg xmlns="http://www.w3.org/2000/svg" xmlns:xlink="http://www.w3.org/1999/xlink" version="1.1" width="759px" height="893px" viewBox="-0.5 -0.5 759 893" style="background-color: rgb(255, 255, 255);"><defs><clipPath id="mx-clip-14-68-212-26-0"><rect x="14" y="68" width="212" height="26"/></clipPath><clipPath id="mx-clip-14-94-212-26-0"><rect x="14" y="94" width="212" height="26"/></clipPath><clipPath id="mx-clip-14-120-212-26-0"><rect x="14" y="120" width="212" height="26"/></clipPath><clipPath id="mx-clip-14-146-212-26-0"><rect x="14" y="146" width="212" height="26"/></clipPath><clipPath id="mx-clip-14-172-212-26-0"><rect x="14" y="172" width="212" height="26"/></clipPath><clipPath id="mx-clip-14-198-212-26-0"><rect x="14" y="198" width="212" height="26"/></clipPath><clipPath id="mx-clip-14-224-212-26-0"><rect x="14" y="224" width="212" height="26"/></clipPath><clipPath id="mx-clip-14-276-212-26-0"><rect x="14" y="276" width="212" height="26"/></clipPath><clipPath id="mx-clip-14-302-212-26-0"><rect x="14" y="302" width="212" height="26"/></clipPath><clipPath id="mx-clip-274-68-172-26-0"><rect x="274" y="68" width="172" height="26"/></clipPath><clipPath id="mx-clip-274-94-172-26-0"><rect x="274" y="94" width="172" height="26"/></clipPath><clipPath id="mx-clip-274-120-172-26-0"><rect x="274" y="120" width="172" height="26"/></clipPath><clipPath id="mx-clip-274-146-172-26-0"><rect x="274" y="146" width="172" height="26"/></clipPath><clipPath id="mx-clip-274-172-172-26-0"><rect x="274" y="172" width="172" height="26"/></clipPath><clipPath id="mx-clip-274-198-172-26-0"><rect x="274" y="198" width="172" height="26"/></clipPath><clipPath id="mx-clip-274-224-172-38-0"><rect x="274" y="224" width="172" height="38"/></clipPath><clipPath id="mx-clip-274-262-172-26-0"><rect x="274" y="262" width="172" height="26"/></clipPath><clipPath id="mx-clip-274-288-172-26-0"><rect x="274" y="288" width="172" height="26"/></clipPath><clipPath id="mx-clip-494-68-202-26-0"><rect x="494" y="68" width="202" height="26"/></clipPath><clipPath id="mx-clip-494-94-202-26-0"><rect x="494" y="94" width="202" height="26"/></clipPath><clipPath id="mx-clip-494-120-202-26-0"><rect x="494" y="120" width="202" height="26"/></clipPath><clipPath id="mx-clip-494-146-202-26-0"><rect x="494" y="146" width="202" height="26"/></clipPath><clipPath id="mx-clip-494-172-202-26-0"><rect x="494" y="172" width="202" height="26"/></clipPath><clipPath id="mx-clip-494-198-202-26-0"><rect x="494" y="198" width="202" height="26"/></clipPath><clipPath id="mx-clip-494-278-202-26-0"><rect x="494" y="278" width="202" height="26"/></clipPath><clipPath id="mx-clip-494-304-202-26-0"><rect x="494" y="304" width="202" height="26"/></clipPath><clipPath id="mx-clip-494-330-202-26-0"><rect x="494" y="330" width="202" height="26"/></clipPath><clipPath id="mx-clip-494-356-202-26-0"><rect x="494" y="356" width="202" height="26"/></clipPath><clipPath id="mx-clip-274-408-172-26-0"><rect x="274" y="408" width="172" height="26"/></clipPath><clipPath id="mx-clip-274-434-172-26-0"><rect x="274" y="434" width="172" height="26"/></clipPath><clipPath id="mx-clip-274-460-172-26-0"><rect x="274" y="460" width="172" height="26"/></clipPath><clipPath id="mx-clip-274-486-172-26-0"><rect x="274" y="486" width="172" height="26"/></clipPath><clipPath id="mx-clip-274-512-172-26-0"><rect x="274" y="512" width="172" height="26"/></clipPath><clipPath id="mx-clip-274-538-172-26-0"><rect x="274" y="538" width="172" height="26"/></clipPath><clipPath id="mx-clip-274-564-172-26-0"><rect x="274" y="564" width="172" height="26"/></clipPath><clipPath id="mx-clip-274-616-172-26-0"><rect x="274" y="616" width="172" height="26"/></clipPath><clipPath id="mx-clip-274-642-172-26-0"><rect x="274" y="642" width="172" height="26"/></clipPath><clipPath id="mx-clip-274-668-172-26-0"><rect x="274" y="668" width="172" height="26"/></clipPath><clipPath id="mx-clip-274-694-172-26-0"><rect x="274" y="694" width="172" height="26"/></clipPath><clipPath id="mx-clip-274-720-172-26-0"><rect x="274" y="720" width="172" height="26"/></clipPath><clipPath id="mx-clip-274-772-172-26-0"><rect x="274" y="772" width="172" height="26"/></clipPath><clipPath id="mx-clip-274-798-172-26-0"><rect x="274" y="798" width="172" height="26"/></clipPath><clipPath id="mx-clip-274-824-172-26-0"><rect x="274" y="824" width="172" height="26"/></clipPath><clipPath id="mx-clip-514-728-202-26-0"><rect x="514" y="728" width="202" height="26"/></clipPath><clipPath id="mx-clip-514-754-202-26-0"><rect x="514" y="754" width="202" height="26"/></clipPath><clipPath id="mx-clip-514-780-202-26-0"><rect x="514" y="780" width="202" height="26"/></clipPath><clipPath id="mx-clip-514-832-202-26-0"><rect x="514" y="832" width="202" height="26"/></clipPath><clipPath id="mx-clip-514-858-202-26-0"><rect x="514" y="858" width="202" height="26"/></clipPath></defs><g><path d="M 10 63 L 10 37 L 230 37 L 230 63" fill="rgb(255, 255, 255)" stroke="rgb(0, 0, 0)" stroke-miterlimit="10" pointer-events="all"/><path d="M 10 63 L 10 323 L 230 323 L 230 63" fill="none" stroke="rgb(0, 0, 0)" stroke-miterlimit="10" pointer-events="none"/><path d="M 10 63 L 230 63" fill="none" stroke="rgb(0, 0, 0)" stroke-miterlimit="10" pointer-events="none"/><g fill="rgb(0, 0, 0)" font-family="Helvetica" font-weight="bold" pointer-events="none" text-anchor="middle" font-size="12px"><text x="119.5" y="54.5">Entity</text></g><g fill="rgb(0, 0, 0)" font-family="Helvetica" pointer-events="none" clip-path="url(#mx-clip-14-68-212-26-0)" font-size="12px"><text x="15.5" y="80.5">enid: ObjectID</text></g><g fill="rgb(0, 0, 0)" font-family="Helvetica" pointer-events="none" clip-path="url(#mx-clip-14-94-212-26-0)" font-size="12px"><text x="15.5" y="106.5">name: string</text></g><g fill="rgb(0, 0, 0)" font-family="Helvetica" pointer-events="none" clip-path="url(#mx-clip-14-120-212-26-0)" font-size="12px"><text x="15.5" y="132.5">description: string</text></g><g fill="rgb(0, 0, 0)" font-family="Helvetica" pointer-events="none" clip-path="url(#mx-clip-14-146-212-26-0)" font-size="12px"><text x="15.5" y="158.5">type: org | research</text></g><g fill="rgb(0, 0, 0)" font-family="Helvetica" pointer-events="none" clip-path="url(#mx-clip-14-172-212-26-0)" font-size="12px"><text x="15.5" y="184.5">external_id: number</text></g><g fill="rgb(0, 0, 0)" font-family="Helvetica" pointer-events="none" clip-path="url(#mx-clip-14-198-212-26-0)" font-size="12px"><text x="15.5" y="210.5">representatives: number</text></g><g fill="rgb(0, 0, 0)" font-family="Helvetica" pointer-events="none" clip-path="url(#mx-clip-14-224-212-26-0)" font-size="12px"><text x="15.5" y="236.5">location: string</text></g><path d="M 10 271 L 10 245 L 230 245 L 230 271" fill="rgb(255, 255, 255)" stroke="rgb(0, 0, 0)" stroke-miterlimit="10" pointer-events="none"/><path d="M 10 271 L 10 323 L 230 323 L 230 271" fill="none" stroke="rgb(0, 0, 0)" stroke-miterlimit="10" pointer-events="none"/><path d="M 10 271 L 230 271" fill="none" stroke="rgb(0, 0, 0)" stroke-miterlimit="10" pointer-events="none"/><g fill="rgb(0, 0, 0)" font-family="Helvetica" font-weight="bold" pointer-events="none" text-anchor="middle" font-size="12px"><text x="119.5" y="262.5">contact[]</text></g><g fill="rgb(0, 0, 0)" font-family="Helvetica" pointer-events="none" clip-path="url(#mx-clip-14-276-212-26-0)" font-size="12px"><text x="15.5" y="288.5">type: website | email | phonenumber</text></g><g fill="rgb(0, 0, 0)" font-family="Helvetica" pointer-events="none" clip-path="url(#mx-clip-14-302-212-26-0)" font-size="12px"><text x="15.5" y="314.5">content: string</text></g><path d="M 270 63 L 270 37 L 450 37 L 450 63" fill="rgb(255, 255, 255)" stroke="rgb(0, 0, 0)" stroke-miterlimit="10" pointer-events="none"/><path d="M 270 63 L 270 309 L 450 309 L 450 63" fill="none" stroke="rgb(0, 0, 0)" stroke-miterlimit="10" pointer-events="none"/><path d="M 270 63 L 450 63" fill="none" stroke="rgb(0, 0, 0)" stroke-miterlimit="10" pointer-events="none"/><g fill="rgb(0, 0, 0)" font-family="Helvetica" font-weight="bold" pointer-events="none" text-anchor="middle" font-size="12px"><text x="359.5" y="54.5">Event</text></g><g fill="rgb(0, 0, 0)" font-family="Helvetica" pointer-events="none" clip-path="url(#mx-clip-274-68-172-26-0)" font-size="12px"><text x="275.5" y="80.5">evid: ObjectID</text></g><g fill="rgb(0, 0, 0)" font-family="Helvetica" pointer-events="none" clip-path="url(#mx-clip-274-94-172-26-0)" font-size="12px"><text x="275.5" y="106.5">enabled: boolean</text></g><g fill="rgb(0, 0, 0)" font-family="Helvetica" pointer-events="none" clip-path="url(#mx-clip-274-120-172-26-0)" font-size="12px"><text x="275.5" y="132.5">name: string</text></g><g fill="rgb(0, 0, 0)" font-family="Helvetica" pointer-events="none" clip-path="url(#mx-clip-274-146-172-26-0)" font-size="12px"><text x="275.5" y="158.5">description: string</text></g><g fill="rgb(0, 0, 0)" font-family="Helvetica" pointer-events="none" clip-path="url(#mx-clip-274-172-172-26-0)" font-size="12px"><text x="275.5" y="184.5">start: date</text></g><g fill="rgb(0, 0, 0)" font-family="Helvetica" pointer-events="none" clip-path="url(#mx-clip-274-198-172-26-0)" font-size="12px"><text x="275.5" y="210.5">location: string</text></g><g fill="rgb(0, 0, 0)" font-family="Helvetica" pointer-events="none" clip-path="url(#mx-clip-274-224-172-38-0)" font-size="12px"><text x="275.5" y="236.5">studentSubmitDeadline: date</text><text x="275.5" y="250.5">(unused)</text></g><g fill="rgb(0, 0, 0)" font-family="Helvetica" pointer-events="none" clip-path="url(#mx-clip-274-262-172-26-0)" font-size="12px"><text x="275.5" y="274.5">entities: [ObjectID]</text></g><g fill="rgb(0, 0, 0)" font-family="Helvetica" pointer-events="none" clip-path="url(#mx-clip-274-288-172-26-0)" font-size="12px"><text x="275.5" y="300.5">external_id: number</text></g><path d="M 230 76 L 250 76 L 250 270 L 263.63 270" fill="none" stroke="rgb(0, 0, 0)" stroke-miterlimit="10" pointer-events="none"/><path d="M 268.88 270 L 261.88 273.5 L 263.63 270 L 261.88 266.5 Z" fill="rgb(0, 0, 0)" stroke="rgb(0, 0, 0)" stroke-miterlimit="10" pointer-events="none"/><path d="M 490 63 L 490 37 L 700 37 L 700 63" fill="rgb(255, 255, 255)" stroke="rgb(0, 0, 0)" stroke-miterlimit="10" pointer-events="none"/><path d="M 490 63 L 490 219 L 700 219 L 700 63" fill="none" stroke="rgb(0, 0, 0)" stroke-miterlimit="10" pointer-events="none"/><path d="M 490 63 L 700 63" fill="none" stroke="rgb(0, 0, 0)" stroke-miterlimit="10" pointer-events="none"/><g fill="rgb(0, 0, 0)" font-family="Helvetica" font-weight="bold" pointer-events="none" text-anchor="middle" font-size="12px"><text x="594.5" y="54.5">Project</text></g><g fill="rgb(0, 0, 0)" font-family="Helvetica" pointer-events="none" clip-path="url(#mx-clip-494-68-202-26-0)" font-size="12px"><text x="495.5" y="80.5">pid: ObjectID</text></g><g fill="rgb(0, 0, 0)" font-family="Helvetica" pointer-events="none" clip-path="url(#mx-clip-494-94-202-26-0)" font-size="12px"><text x="495.5" y="106.5">enid: ObjectID</text></g><g fill="rgb(0, 0, 0)" font-family="Helvetica" pointer-events="none" clip-path="url(#mx-clip-494-120-202-26-0)" font-size="12px"><text x="495.5" y="132.5">evids: [ObjectID]</text></g><g fill="rgb(0, 0, 0)" font-family="Helvetica" pointer-events="none" clip-path="url(#mx-clip-494-146-202-26-0)" font-size="12px"><text x="495.5" y="158.5">name: string</text></g><g fill="rgb(0, 0, 0)" font-family="Helvetica" pointer-events="none" clip-path="url(#mx-clip-494-172-202-26-0)" font-size="12px"><text x="495.5" y="184.5">description: string</text></g><g fill="rgb(0, 0, 0)" font-family="Helvetica" pointer-events="none" clip-path="url(#mx-clip-494-198-202-26-0)" font-size="12px"><text x="495.5" y="210.5">Datanose link</text></g><path d="M 450 76 L 460 76 L 460 128 L 483.63 128" fill="none" stroke="rgb(0, 0, 0)" stroke-miterlimit="10" pointer-events="none"/><path d="M 488.88 128 L 481.88 131.5 L 483.63 128 L 481.88 124.5 Z" fill="rgb(0, 0, 0)" stroke="rgb(0, 0, 0)" stroke-miterlimit="10" pointer-events="none"/><path d="M 230 76 L 250 76 L 250 17 L 470 17 L 470 102 L 483.63 102" fill="none" stroke="rgb(0, 0, 0)" stroke-miterlimit="10" pointer-events="none"/><path d="M 488.88 102 L 481.88 105.5 L 483.63 102 L 481.88 98.5 Z" fill="rgb(0, 0, 0)" stroke="rgb(0, 0, 0)" stroke-miterlimit="10" pointer-events="none"/><path d="M 490 273 L 490 247 L 700 247 L 700 273" fill="rgb(255, 255, 255)" stroke="rgb(0, 0, 0)" stroke-miterlimit="10" pointer-events="none"/><path d="M 490 273 L 490 377 L 700 377 L 700 273" fill="none" stroke="rgb(0, 0, 0)" stroke-miterlimit="10" pointer-events="none"/><path d="M 490 273 L 700 273" fill="none" stroke="rgb(0, 0, 0)" stroke-miterlimit="10" pointer-events="none"/><g fill="rgb(0, 0, 0)" font-family="Helvetica" font-weight="bold" pointer-events="none" text-anchor="middle" font-size="12px"><text x="594.5" y="264.5">Schedule</text></g><g fill="rgb(0, 0, 0)" font-family="Helvetica" pointer-events="none" clip-path="url(#mx-clip-494-278-202-26-0)" font-size="12px"><text x="495.5" y="290.5">sid: ObjectID</text></g><g fill="rgb(0, 0, 0)" font-family="Helvetica" pointer-events="none" clip-path="url(#mx-clip-494-304-202-26-0)" font-size="12px"><text x="495.5" y="316.5">evid: ObjectID</text></g><g fill="rgb(0, 0, 0)" font-family="Helvetica" pointer-events="none" clip-path="url(#mx-clip-494-330-202-26-0)" font-size="12px"><text x="495.5" y="342.5">enid: ObjectID</text></g><g fill="rgb(0, 0, 0)" font-family="Helvetica" pointer-events="none" clip-path="url(#mx-clip-494-356-202-26-0)" font-size="12px"><text x="495.5" y="368.5">slot: string</text></g><path d="M 450 76 L 460 76 L 460 312 L 483.63 312" fill="none" stroke="rgb(0, 0, 0)" stroke-miterlimit="10" pointer-events="none"/><path d="M 488.88 312 L 481.88 315.5 L 483.63 312 L 481.88 308.5 Z" fill="rgb(0, 0, 0)" stroke="rgb(0, 0, 0)" stroke-miterlimit="10" pointer-events="none"/><path d="M 230 76 L 250 76 L 250 338 L 483.63 338" fill="none" stroke="rgb(0, 0, 0)" stroke-miterlimit="10" pointer-events="none"/><path d="M 488.88 338 L 481.88 341.5 L 483.63 338 L 481.88 334.5 Z" fill="rgb(0, 0, 0)" stroke="rgb(0, 0, 0)" stroke-miterlimit="10" pointer-events="none"/><path d="M 270 403 L 270 377 L 450 377 L 450 403" fill="rgb(255, 255, 255)" stroke="rgb(0, 0, 0)" stroke-miterlimit="10" pointer-events="none"/><path d="M 270 403 L 270 845 L 450 845 L 450 403" fill="none" stroke="rgb(0, 0, 0)" stroke-miterlimit="10" pointer-events="none"/><path d="M 270 403 L 450 403" fill="none" stroke="rgb(0, 0, 0)" stroke-miterlimit="10" pointer-events="none"/><g fill="rgb(0, 0, 0)" font-family="Helvetica" font-weight="bold" pointer-events="none" text-anchor="middle" font-size="12px"><text x="359.5" y="394.5">User</text></g><g fill="rgb(0, 0, 0)" font-family="Helvetica" pointer-events="none" clip-path="url(#mx-clip-274-408-172-26-0)" font-size="12px"><text x="275.5" y="420.5">uid: ObjectID</text></g><g fill="rgb(0, 0, 0)" font-family="Helvetica" pointer-events="none" clip-path="url(#mx-clip-274-434-172-26-0)" font-size="12px"><text x="275.5" y="446.5">firstname: string</text></g><g fill="rgb(0, 0, 0)" font-family="Helvetica" pointer-events="none" clip-path="url(#mx-clip-274-460-172-26-0)" font-size="12px"><text x="275.5" y="472.5">lastname: string</text></g><g fill="rgb(0, 0, 0)" font-family="Helvetica" pointer-events="none" clip-path="url(#mx-clip-274-486-172-26-0)" font-size="12px"><text x="275.5" y="498.5">email: string</text></g><g fill="rgb(0, 0, 0)" font-family="Helvetica" pointer-events="none" clip-path="url(#mx-clip-274-512-172-26-0)" font-size="12px"><text x="275.5" y="524.5">phone: string</text></g><g fill="rgb(0, 0, 0)" font-family="Helvetica" pointer-events="none" clip-path="url(#mx-clip-274-538-172-26-0)" font-size="12px"><text x="275.5" y="550.5">admin: boolean</text></g><g fill="rgb(0, 0, 0)" font-family="Helvetica" pointer-events="none" clip-path="url(#mx-clip-274-564-172-26-0)" font-size="12px"><text x="275.5" y="576.5">password: string</text></g><path d="M 270 611 L 270 585 L 450 585 L 450 611" fill="rgb(255, 255, 255)" stroke="rgb(0, 0, 0)" stroke-miterlimit="10" pointer-events="none"/><path d="M 270 611 L 270 741 L 450 741 L 450 611" fill="none" stroke="rgb(0, 0, 0)" stroke-miterlimit="10" pointer-events="none"/><path d="M 270 611 L 450 611" fill="none" stroke="rgb(0, 0, 0)" stroke-miterlimit="10" pointer-events="none"/><g fill="rgb(0, 0, 0)" font-family="Helvetica" font-weight="bold" pointer-events="none" text-anchor="middle" font-size="12px"><text x="359.5" y="602.5">Student union</text></g><g fill="rgb(0, 0, 0)" font-family="Helvetica" pointer-events="none" clip-path="url(#mx-clip-274-616-172-26-0)" font-size="12px"><text x="275.5" y="628.5">studentnumber: string</text></g><g fill="rgb(0, 0, 0)" font-family="Helvetica" pointer-events="none" clip-path="url(#mx-clip-274-642-172-26-0)" font-size="12px"><text x="275.5" y="654.5">websites: [string]</text></g><g fill="rgb(0, 0, 0)" font-family="Helvetica" pointer-events="none" clip-path="url(#mx-clip-274-668-172-26-0)" font-size="12px"><text x="275.5" y="680.5">studies: [string]</text></g><g fill="rgb(0, 0, 0)" font-family="Helvetica" pointer-events="none" clip-path="url(#mx-clip-274-694-172-26-0)" font-size="12px"><text x="275.5" y="706.5">share: [ObjectId]</text></g><g fill="rgb(0, 0, 0)" font-family="Helvetica" pointer-events="none" clip-path="url(#mx-clip-274-720-172-26-0)" font-size="12px"><text x="275.5" y="732.5">manuallyShared: [ObjectId]</text></g><path d="M 270 767 L 270 741 L 450 741 L 450 767" fill="rgb(255, 255, 255)" stroke="rgb(0, 0, 0)" stroke-miterlimit="10" pointer-events="none"/><path d="M 270 767 L 270 845 L 450 845 L 450 767" fill="none" stroke="rgb(0, 0, 0)" stroke-miterlimit="10" pointer-events="none"/><path d="M 270 767 L 450 767" fill="none" stroke="rgb(0, 0, 0)" stroke-miterlimit="10" pointer-events="none"/><g fill="rgb(0, 0, 0)" font-family="Helvetica" font-weight="bold" pointer-events="none" text-anchor="middle" font-size="12px"><text x="359.5" y="758.5">Representative union</text></g><g fill="rgb(0, 0, 0)" font-family="Helvetica" pointer-events="none" clip-path="url(#mx-clip-274-772-172-26-0)" font-size="12px"><text x="275.5" y="784.5">enid: ObjectId</text></g><g fill="rgb(0, 0, 0)" font-family="Helvetica" pointer-events="none" clip-path="url(#mx-clip-274-798-172-26-0)" font-size="12px"><text x="275.5" y="810.5">repAdmin: boolean</text></g><g fill="rgb(0, 0, 0)" font-family="Helvetica" pointer-events="none" clip-path="url(#mx-clip-274-824-172-26-0)" font-size="12px"><text x="275.5" y="836.5">external_id: string</text></g><path d="M 230 76 L 250 76 L 250 780 L 263.63 780" fill="none" stroke="rgb(0, 0, 0)" stroke-miterlimit="10" pointer-events="none"/><path d="M 268.88 780 L 261.88 783.5 L 263.63 780 L 261.88 776.5 Z" fill="rgb(0, 0, 0)" stroke="rgb(0, 0, 0)" stroke-miterlimit="10" pointer-events="none"/><path d="M 510 723 L 510 697 L 720 697 L 720 723" fill="rgb(255, 255, 255)" stroke="rgb(0, 0, 0)" stroke-miterlimit="10" pointer-events="none"/><path d="M 510 723 L 510 879 L 720 879 L 720 723" fill="none" stroke="rgb(0, 0, 0)" stroke-miterlimit="10" pointer-events="none"/><path d="M 510 723 L 720 723" fill="none" stroke="rgb(0, 0, 0)" stroke-miterlimit="10" pointer-events="none"/><g fill="rgb(0, 0, 0)" font-family="Helvetica" font-weight="bold" pointer-events="none" text-anchor="middle" font-size="12px"><text x="614.5" y="714.5">Vote</text></g><g fill="rgb(0, 0, 0)" font-family="Helvetica" pointer-events="none" clip-path="url(#mx-clip-514-728-202-26-0)" font-size="12px"><text x="515.5" y="740.5">vid: ObjectID</text></g><g fill="rgb(0, 0, 0)" font-family="Helvetica" pointer-events="none" clip-path="url(#mx-clip-514-754-202-26-0)" font-size="12px"><text x="515.5" y="766.5">uid: ObjectID</text></g><g fill="rgb(0, 0, 0)" font-family="Helvetica" pointer-events="none" clip-path="url(#mx-clip-514-780-202-26-0)" font-size="12px"><text x="515.5" y="792.5">evid: ObjectID</text></g><path d="M 510 827 L 510 801 L 720 801 L 720 827" fill="rgb(255, 255, 255)" stroke="rgb(0, 0, 0)" stroke-miterlimit="10" pointer-events="none"/><path d="M 510 827 L 510 879 L 720 879 L 720 827" fill="none" stroke="rgb(0, 0, 0)" stroke-miterlimit="10" pointer-events="none"/><path d="M 510 827 L 720 827" fill="none" stroke="rgb(0, 0, 0)" stroke-miterlimit="10" pointer-events="none"/><g fill="rgb(0, 0, 0)" font-family="Helvetica" font-weight="bold" pointer-events="none" text-anchor="middle" font-size="12px"><text x="614.5" y="818.5">votes[]</text></g><g fill="rgb(0, 0, 0)" font-family="Helvetica" pointer-events="none" clip-path="url(#mx-clip-514-832-202-26-0)" font-size="12px"><text x="515.5" y="844.5">enid: ObjectID</text></g><g fill="rgb(0, 0, 0)" font-family="Helvetica" pointer-events="none" clip-path="url(#mx-clip-514-858-202-26-0)" font-size="12px"><text x="515.5" y="870.5">pid: ObjectID</text></g><path d="M 700 76 L 740 76 L 740 866 L 726.37 866" fill="none" stroke="rgb(0, 0, 0)" stroke-miterlimit="10" pointer-events="none"/><path d="M 721.12 866 L 728.12 862.5 L 726.37 866 L 728.12 869.5 Z" fill="rgb(0, 0, 0)" stroke="rgb(0, 0, 0)" stroke-miterlimit="10" pointer-events="none"/><path d="M 230 76 L 250 76 L 250 702 L 263.63 702" fill="none" stroke="rgb(0, 0, 0)" stroke-miterlimit="10" pointer-events="none"/><path d="M 268.88 702 L 261.88 705.5 L 263.63 702 L 261.88 698.5 Z" fill="rgb(0, 0, 0)" stroke="rgb(0, 0, 0)" stroke-miterlimit="10" pointer-events="none"/><path d="M 230 76 L 250 76 L 250 857 L 480 857 L 480 840 L 503.63 840" fill="none" stroke="rgb(0, 0, 0)" stroke-miterlimit="10" pointer-events="none"/><path d="M 508.88 840 L 501.88 843.5 L 503.63 840 L 501.88 836.5 Z" fill="rgb(0, 0, 0)" stroke="rgb(0, 0, 0)" stroke-miterlimit="10" pointer-events="none"/><path d="M 450 416 L 480 416 L 480 762 L 503.63 762" fill="none" stroke="rgb(0, 0, 0)" stroke-miterlimit="10" pointer-events="none"/><path d="M 508.88 762 L 501.88 765.5 L 503.63 762 L 501.88 758.5 Z" fill="rgb(0, 0, 0)" stroke="rgb(0, 0, 0)" stroke-miterlimit="10" pointer-events="none"/><path d="M 450 76 L 460 76 L 460 335 C 463.9 335 463.9 341 460 341 L 460 341 L 460 413 C 463.9 413 463.9 419 460 419 L 460 419 L 460 788 L 503.63 788" fill="none" stroke="rgb(0, 0, 0)" stroke-miterlimit="10" pointer-events="none"/><path d="M 508.88 788 L 501.88 791.5 L 503.63 788 L 501.88 784.5 Z" fill="rgb(0, 0, 0)" stroke="rgb(0, 0, 0)" stroke-miterlimit="10" pointer-events="none"/></g></svg>