<?xml version="1.0" encoding="UTF-8" standalone="no"?>
<svg
   xmlns:dc="http://purl.org/dc/elements/1.1/"
   xmlns:cc="http://creativecommons.org/ns#"
   xmlns:rdf="http://www.w3.org/1999/02/22-rdf-syntax-ns#"
   xmlns:svg="http://www.w3.org/2000/svg"
   xmlns="http://www.w3.org/2000/svg"
   xmlns:sodipodi="http://sodipodi.sourceforge.net/DTD/sodipodi-0.dtd"
   xmlns:inkscape="http://www.inkscape.org/namespaces/inkscape"
   version="1.1"
   id="svg2"
   xml:space="preserve"
   width="75.58667"
   height="103.44"
   viewBox="0 0 75.58667 103.44"
   sodipodi:docname="uvalogo_tag_d.eps"><metadata
     id="metadata8"><rdf:RDF><cc:Work
         rdf:about=""><dc:format>image/svg+xml</dc:format><dc:type
           rdf:resource="http://purl.org/dc/dcmitype/StillImage" /></cc:Work></rdf:RDF></metadata><defs
     id="defs6" /><sodipodi:namedview
     pagecolor="#ffffff"
     bordercolor="#666666"
     borderopacity="1"
     objecttolerance="10"
     gridtolerance="10"
     guidetolerance="10"
     inkscape:pageopacity="0"
     inkscape:pageshadow="2"
     inkscape:window-width="640"
     inkscape:window-height="480"
     id="namedview4" /><g
     id="g10"
     inkscape:groupmode="layer"
     inkscape:label="ink_ext_XXXXXX"
     transform="matrix(1.3333333,0,0,-1.3333333,0,103.44)"><g
       id="g12"
       transform="scale(0.1)"><path
         d="M 566.93,208.848 H 0 V 775.781 H 566.93 V 208.848"
         style="fill:#ffffff;fill-opacity:1;fill-rule:nonzero;stroke:none"
         id="path14" /><path
         d="m 240.66,614.348 42.813,42.812 42.82,-42.812 23.68,23.683 -42.801,42.828 42.801,42.797 -23.68,23.703 -42.82,-42.808 -42.813,42.808 -23.695,-23.703 42.82,-42.797 -42.82,-42.828 23.695,-23.683"
         style="fill:#100f0d;fill-opacity:1;fill-rule:nonzero;stroke:none"
         id="path16" /><path
         d="m 240.66,456.785 42.813,42.817 42.82,-42.817 23.68,23.684 -42.801,42.832 42.801,42.797 -23.68,23.703 -42.82,-42.809 -42.813,42.809 -23.695,-23.703 42.82,-42.797 -42.82,-42.832 23.695,-23.684"
         style="fill:#100f0d;fill-opacity:1;fill-rule:nonzero;stroke:none"
         id="path18" /><path
         d="m 240.66,237.5 42.813,42.813 42.82,-42.813 23.68,23.691 -42.801,42.825 42.801,42.8 -23.68,23.692 -42.82,-42.805 -42.813,42.805 -23.695,-23.692 42.82,-42.8 -42.82,-42.825 23.695,-23.691"
         style="fill:#100f0d;fill-opacity:1;fill-rule:nonzero;stroke:none"
         id="path20" /><path
         d="m 412.328,614.973 -49.258,-2.27 c 0,0 7.032,-52.008 4.055,-104.547 -2.863,-50.168 -10.766,-58.984 -10.766,-58.984 -11.132,-20.891 -45.586,-25.977 -63.203,-27.336 -17.676,-1.387 -25.566,-0.43 -25.566,-0.43 0,0 -50.836,1.953 -62.238,25.625 -6.493,13.489 -7.868,39.961 -7.868,39.961 0,0 -0.3,124.059 -0.75,126.86 -0.285,1.5 -10.285,-1.094 -21.867,-1.024 -9.426,0.027 -23.226,0.645 -23.226,0.645 l 4.086,-91.133 -0.551,-53.863 c 0,0 0,-28.899 7.414,-40.418 12.508,-19.563 26.433,-26.555 34.34,-30.254 7.89,-3.75 20.433,-7.481 34.371,-10.266 13.926,-2.812 37.179,-4.238 67.816,3.613 30.66,7.903 44.211,21.797 44.211,21.797 l 23.235,21.836 -0.067,-51.609 48.797,14.363 c 0,0 -6.441,40.899 -6.371,110.582 0.074,69.707 3.406,106.852 3.406,106.852"
         style="fill:#100f0d;fill-opacity:1;fill-rule:nonzero;stroke:none"
         id="path22" /><path
         d="m 122.969,116.438 c 0,15.125 -8.614,15.125 -18.481,15.125 l -0.898,0.773 v 3.25 c 0,2.109 1.254,2.297 3.23,2.297 4.664,0 16.149,-0.957 24.582,-0.957 8.973,0 18.125,0.957 27.098,0.957 l 0.539,-0.578 v -4.969 l -0.898,-0.773 h -2.153 c -11.668,0 -16.871,-1.336 -16.871,-15.704 V 60.3242 c 0,-27.5703 5.028,-49.2109 35.887,-49.2109 32.125,0 42.531,16.4648 42.531,48.8281 v 49.7966 c 0,21.825 0,20.293 -15.793,21.825 l -0.715,1.535 v 3.64 l 0.539,1.145 c 3.231,0 6.817,-0.957 20.274,-0.957 7.539,0 17.051,0.957 22.793,0.957 l 0.715,-1.145 v -4.023 l -1.075,-1.152 c -13.101,0 -17.765,-0.762 -17.765,-10.34 V 52.8633 C 226.508,17.8125 207.309,0 174.648,0 148.629,0 122.969,9.77734 122.969,41.75 v 74.688"
         style="fill:#ffffff;fill-opacity:1;fill-rule:nonzero;stroke:none"
         id="path24" /><path
         d="M 286.672,0.578125 C 286.488,0 285.773,0 285.234,0 c -1.078,0 -2.152,1.92578 -3.05,4.21875 -0.719,1.91406 -0.899,3.82813 -1.797,5.93755 -8.789,22.0234 -19.739,47.6757 -26.555,66.2617 -1.258,3.4453 -8.254,4.0117 -11.129,4.0117 -0.715,0 -1.078,1.5351 -1.078,3.0664 0,1.1523 0.543,2.2969 1.078,2.2969 3.231,0 10.949,-0.9571 18.844,-0.9571 6.101,0 15.969,0.9571 18.484,0.9571 0.715,0 1.078,-0.3828 1.078,-2.1016 v -1.9141 c 0,-0.5742 -0.363,-1.3476 -0.898,-1.3476 l -5.566,-0.3789 c -2.692,-0.1875 -5.02,-0.7656 -5.02,-3.0664 0,-1.5235 1.074,-5.5469 2.328,-8.9961 5.387,-14.5586 11.664,-29.1094 17.406,-43.6602 h 0.364 c 2.507,8.8086 17.582,42.8907 17.582,49.5977 0,5.3594 -3.051,6.5039 -8.075,6.5039 h -2.691 c -0.719,0 -1.074,0.1953 -1.074,1.9141 v 1.7304 c 0,0.7617 0.355,1.7188 0.894,1.7188 1.434,0 8.075,-0.9571 17.043,-0.9571 1.797,0 9.157,0.9571 14,0.9571 0.356,0 0.719,-0.1875 0.719,-1.3399 v -2.4883 c 0,-1.1445 -0.363,-1.5351 -1.254,-1.5351 -8.613,0 -10.594,-4.207 -14,-12.8203 L 286.672,0.578125"
         style="fill:#ffffff;fill-opacity:1;fill-rule:nonzero;stroke:none"
         id="path26" /><path
         d="m 404.77,63.7695 -19.915,54.7775 h -0.363 L 367.445,63.7695 Z m -39.657,-7.4609 -7.894,-27.1953 c -1.438,-4.9805 -2.156,-9.3867 -2.156,-12.4531 0,-6.3164 8.437,-7.65629 13.281,-7.65629 1.613,0 1.972,-1.15235 1.972,-3.64063 0,-1.91406 -0.179,-2.67578 -1.433,-2.67578 -4.125,0 -17.227,0.95703 -22.07,0.95703 -4.844,0 -12.383,-0.95703 -17.766,-0.95703 -3.594,0 -3.594,0.57422 -3.594,3.06641 v 2.09765 c 0,0.95703 1.617,1.34766 5.926,1.72657 9.328,0.95707 10.59,2.87497 13.996,13.41017 l 35.527,110.3047 c 3.59,3.25 7.36,7.656 11.848,9.187 L 437.789,21.2617 c 3.051,-8.0469 6.277,-12.06248 16.688,-12.06248 1.972,0 2.336,-2.30469 2.336,-4.40234 0,-2.10938 -1.262,-2.10938 -3.415,-2.10938 -2.871,0 -14.355,0.95703 -21.351,0.95703 -7.18,0 -14.356,-0.38281 -21.535,-0.95703 -2.688,0 -2.871,0.57422 -2.871,3.25 0,2.10938 1.074,3.06641 3.589,3.06641 2.692,0 11.485,0.57422 11.485,5.17579 0,1.5234 -0.719,4.5898 -3.227,11.2891 l -11.484,30.8398 h -42.891"
         style="fill:#ffffff;fill-opacity:1;fill-rule:nonzero;stroke:none"
         id="path28" /></g></g></svg>
